<svg xmlns="http://www.w3.org/2000/svg" width="45" height="38"><g fill-rule="evenodd" clip-rule="evenodd" fill="#F6FAFA"><path d="M14.457 18.647c-.324.85-.66 1.709-1.025 2.655-.69-.887-4.804-11.831-6.609-16.427-.373-.946-.767-1.885-1.123-2.838-.513-1.377-1.795-2.042-3.066-1.565-1.338.502-1.979 1.869-1.447 3.197 1.025 2.563 2.094 5.109 3.121 7.672 1.141 2.846 2.418 5.635 3.468 8.521.855 2.353 1.896 4.639 2.868 6.95.103.245.159.49.052.713-.563 1.171-.954 2.426-1.67 3.525-.652 1-1.512 1.67-2.736 1.846-.796.115-1.586.028-2.378.047-1.082.025-1.909.786-1.982 1.832-.071 1.011.617 1.87 1.642 2.073.935.185 1.878.163 2.82.127 2.665-.103 4.779-1.206 6.191-3.509 1.371-2.234 2.116-4.753 3.176-7.128.784-1.757 1.46-3.563 2.179-5.349.771-1.911 1.544-3.819 2.299-5.736.681-1.729 1.275-3.495 2.021-5.195.941-2.144 1.853-4.299 2.691-6.482.4-1.042-.11-2.166-1.07-2.653-1.102-.56-2.036-.315-2.812.627-.348.421-.51.889-.691 1.374-1.914 5.105-3.837 10.208-5.761 15.31l-.158.413zM39.304 31.387c-.058.675-.319 1.395-1.112 1.793-.708.355-1.427.392-2.118-.059-3.033-1.98-5.974-4.087-8.709-6.467-.428-.372-.808-.803-1.176-1.235-.131-.153-.278-.375-.128-.61.126-.196.343-.183.538-.175.622.024 1.23.155 1.814.347 3.476 1.147 6.743 2.759 9.928 4.544.696.39.957.935.963 1.862zM37.191 4.875c1 .038 1.769.626 2.056 1.526.278.874-.039 1.931-.827 2.428-1.617 1.02-3.361 1.807-5.096 2.599-1.938.884-3.883 1.768-5.989 2.204-.459.095-1.073.305-1.291-.169-.208-.453.271-.854.642-1.202 2.801-2.621 5.958-4.767 9.124-6.903.437-.296.889-.551 1.381-.483zM40.898 21.19c-3.389-.182-6.794-.201-10.113-1.027-.548-.136-1.408-.159-1.385-.857.02-.606.87-.634 1.392-.768 3.3-.847 6.675-1.224 10.058-1.541l1.11-.11c1.226-.096 2.236.786 2.305 2.005.069 1.255-.857 2.271-2.101 2.297-.422.009-.844.001-1.266.001z"/></g></svg>